<svg xmlns="http://www.w3.org/2000/svg" width="512" height="512" viewBox="0 0 512 512">
  <defs><linearGradient id="g" x1="0" y1="0" x2="1" y2="1"><stop offset="0" stop-color="#2E75FF"/><stop offset="1" stop-color="#32D5FF"/></linearGradient></defs>
  <rect width="512" height="512" rx="116" fill="#071B2E"/>
  <path d="M256 68 L388 116 V236 C388 332 330 404 256 444 C182 404 124 332 124 236 V116 Z" fill="none" stroke="url(#g)" stroke-width="26"/>
  <path d="M186 206 C186 162 222 126 266 126 H310 C354 126 390 162 390 206 C390 250 354 286 310 286 H267" fill="none" stroke="#FFFFFF" stroke-width="28" stroke-linecap="round"/>
  <path d="M326 306 C326 350 290 386 246 386 H202 C158 386 122 350 122 306 C122 262 158 226 202 226 H245" fill="none" stroke="#FFFFFF" stroke-width="28" stroke-linecap="round"/>
  <circle cx="256" cy="256" r="28" fill="#34D399"/>
  </svg>